<svg xmlns="http://www.w3.org/2000/svg" viewBox="0 0 64 64" role="img" aria-labelledby="title desc">
  <title id="title">Upraglog</title>
  <desc id="desc">A blue and white letter U with a dumbbell inside.</desc>
  <defs>
    <linearGradient id="u-stroke" x1="13" y1="8" x2="51" y2="56" gradientUnits="userSpaceOnUse">
      <stop offset="0" stop-color="#ffffff"/>
      <stop offset="0.58" stop-color="#dff8ff"/>
      <stop offset="1" stop-color="#55d7ff"/>
    </linearGradient>
    <linearGradient id="plate-fill" x1="18" y1="25" x2="46" y2="39" gradientUnits="userSpaceOnUse">
      <stop offset="0" stop-color="#effcff"/>
      <stop offset="1" stop-color="#64d8ff"/>
    </linearGradient>
    <filter id="soft-glow" x="-20%" y="-20%" width="140%" height="140%">
      <feGaussianBlur in="SourceGraphic" stdDeviation="1.25" result="blur"/>
      <feColorMatrix in="blur" type="matrix" values="0 0 0 0 0.1 0 0 0 0 0.78 0 0 0 0 1 0 0 0 0.55 0" result="glow"/>
      <feMerge>
        <feMergeNode in="glow"/>
        <feMergeNode in="SourceGraphic"/>
      </feMerge>
    </filter>
  </defs>
  <rect width="64" height="64" rx="16" fill="#07111d"/>
  <path fill="none" stroke="#0d2b42" stroke-linecap="round" stroke-width="18" d="M17 13v25c0 9.4 5.9 15 15 15s15-5.6 15-15V13"/>
  <path fill="none" stroke="url(#u-stroke)" stroke-linecap="round" stroke-width="11" d="M17 13v25c0 9.4 5.9 15 15 15s15-5.6 15-15V13" filter="url(#soft-glow)"/>
  <g fill="none" stroke-linecap="round" stroke-linejoin="round">
    <path stroke="#07111d" stroke-width="9" d="M21 32h22"/>
    <path stroke="url(#plate-fill)" stroke-width="4.5" d="M21 32h22"/>
    <path stroke="#07111d" stroke-width="8" d="M17 27v10m5-8v6m20-6v6m5-8v10"/>
    <path stroke="url(#plate-fill)" stroke-width="3.8" d="M17 27v10m5-8v6m20-6v6m5-8v10"/>
  </g>
</svg>
